<svg width="807" height="133" viewBox="0 0 807 133" fill="none" xmlns="http://www.w3.org/2000/svg">
<path d="M2.478 11.558H26.544V18.278H11.214V22.898H25.116V29.618H11.214V34.28H26.964V41H2.478V11.558ZM34.0039 33.44C36.3559 33.44 37.9939 35.036 37.9939 37.346C37.9939 39.698 36.3559 41.336 34.0039 41.336C31.6939 41.336 30.0559 39.698 30.0559 37.346C30.0559 35.036 31.6939 33.44 34.0039 33.44ZM61.089 32.936V25.754H68.607V37.598C65.415 39.782 60.207 41.378 56.007 41.378C46.893 41.378 40.173 34.952 40.173 26.3C40.173 17.69 47.103 11.306 56.595 11.306C61.089 11.306 65.919 13.028 69.027 15.758L64.071 21.764C62.055 19.832 59.115 18.572 56.553 18.572C52.311 18.572 49.119 21.89 49.119 26.3C49.119 30.794 52.353 34.07 56.637 34.07C57.855 34.07 59.493 33.65 61.089 32.936ZM75.7988 33.44C78.1508 33.44 79.7888 35.036 79.7888 37.346C79.7888 39.698 78.1508 41.336 75.7988 41.336C73.4888 41.336 71.8508 39.698 71.8508 37.346C71.8508 35.036 73.4888 33.44 75.7988 33.44ZM104.816 21.302C101.792 19.58 97.5079 18.026 95.0299 18.026C93.5599 18.026 92.5939 18.53 92.5939 19.622C92.5939 23.948 107.966 21.386 107.966 32.012C107.966 38.27 102.422 41.252 95.8279 41.252C90.8299 41.252 85.3699 39.488 81.6739 36.59L84.9499 29.954C87.9739 32.516 92.8879 34.448 95.9119 34.448C97.7599 34.448 98.9359 33.818 98.9359 32.474C98.9359 28.022 83.5639 30.836 83.5639 20.462C83.5639 14.792 88.3939 11.18 95.7439 11.18C100.238 11.18 104.858 12.524 108.05 14.582L104.816 21.302ZM137.117 11.558C144.719 11.558 149.087 15.338 149.087 22.016C149.087 29.03 144.719 33.062 137.117 33.062H132.497V41H123.761V11.558H137.117ZM136.697 26.342C139.301 26.342 140.813 24.914 140.813 22.268C140.813 19.706 139.301 18.278 136.697 18.278H132.497V26.342H136.697ZM152.431 11.558H161.167V41H152.431V11.558ZM166.13 11.558H174.866V33.692H187.214V41H166.13V11.558ZM190.248 11.558H198.984V33.692H211.332V41H190.248V11.558ZM235.952 41L234.23 36.296H222.344L220.58 41H211.592L224.15 11.558H233.138L245.276 41H235.952ZM224.78 29.912H231.92L228.392 20.294L224.78 29.912ZM272.303 11.558L261.719 31.676V41H252.983V31.844L242.189 11.558H250.925L257.351 23.57L263.609 11.558H272.303ZM287.085 11.558H311.151V18.278H295.821V22.898H309.723V29.618H295.821V34.28H311.571V41H287.085V11.558ZM315.755 11.558H323.231L335.705 28.022V11.558H343.685V41H336.251L323.777 24.62V41H315.755V11.558ZM367.886 32.936V25.754H375.404V37.598C372.212 39.782 367.004 41.378 362.804 41.378C353.69 41.378 346.97 34.952 346.97 26.3C346.97 17.69 353.9 11.306 363.392 11.306C367.886 11.306 372.716 13.028 375.824 15.758L370.868 21.764C368.852 19.832 365.912 18.572 363.35 18.572C359.108 18.572 355.916 21.89 355.916 26.3C355.916 30.794 359.15 34.07 363.434 34.07C364.652 34.07 366.29 33.65 367.886 32.936ZM379.74 11.558H388.476V41H379.74V11.558ZM393.439 11.558H400.915L413.389 28.022V11.558H421.369V41H413.935L401.461 24.62V41H393.439V11.558ZM426.333 11.558H450.399V18.278H435.069V22.898H448.971V29.618H435.069V34.28H450.819V41H426.333V11.558ZM455.003 11.558H479.069V18.278H463.739V22.898H477.641V29.618H463.739V34.28H479.489V41H455.003V11.558ZM510.847 41H500.935L497.029 33.062H492.409V41H483.673V11.558H497.407C505.303 11.558 509.839 15.338 509.839 22.016C509.839 26.384 508.075 29.576 504.883 31.382L510.847 41ZM492.409 18.278V26.342H497.407C500.011 26.342 501.523 24.914 501.523 22.268C501.523 19.706 500.011 18.278 497.407 18.278H492.409ZM514.107 11.558H522.843V41H514.107V11.558ZM527.806 11.558H535.282L547.756 28.022V11.558H555.736V41H548.302L535.828 24.62V41H527.806V11.558ZM579.937 32.936V25.754H587.455V37.598C584.263 39.782 579.055 41.378 574.855 41.378C565.741 41.378 559.021 34.952 559.021 26.3C559.021 17.69 565.951 11.306 575.443 11.306C579.937 11.306 584.767 13.028 587.875 15.758L582.919 21.764C580.903 19.832 577.963 18.572 575.401 18.572C571.159 18.572 567.967 21.89 567.967 26.3C567.967 30.794 571.201 34.07 575.485 34.07C576.703 34.07 578.341 33.65 579.937 32.936ZM625.676 22.478C623.828 20.126 621.098 18.572 618.662 18.572C614.672 18.572 611.648 21.806 611.648 26.132C611.648 30.458 614.672 33.734 618.662 33.734C620.93 33.734 623.66 32.39 625.676 30.332L630.716 35.708C627.524 39.152 622.694 41.378 618.242 41.378C609.296 41.378 602.702 34.91 602.702 26.216C602.702 17.648 609.422 11.306 618.536 11.306C622.988 11.306 627.734 13.322 630.716 16.514L625.676 22.478ZM647.293 11.306C656.533 11.306 663.337 17.648 663.337 26.258C663.337 34.91 656.533 41.378 647.293 41.378C638.053 41.378 631.249 34.952 631.249 26.258C631.249 17.606 638.053 11.306 647.293 11.306ZM647.419 18.614C643.513 18.614 640.195 21.848 640.195 26.3C640.195 30.752 643.555 34.07 647.419 34.07C651.283 34.07 654.391 30.752 654.391 26.3C654.391 21.848 651.283 18.614 647.419 18.614ZM666.603 11.558H675.339V33.692H687.687V41H666.603V11.558ZM690.72 11.558H699.456V33.692H711.804V41H690.72V11.558ZM714.837 11.558H738.903V18.278H723.573V22.898H737.475V29.618H723.573V34.28H739.323V41H714.837V11.558ZM762.743 32.936V25.754H770.261V37.598C767.069 39.782 761.861 41.378 757.661 41.378C748.547 41.378 741.827 34.952 741.827 26.3C741.827 17.69 748.757 11.306 758.249 11.306C762.743 11.306 767.573 13.028 770.681 15.758L765.725 21.764C763.709 19.832 760.769 18.572 758.207 18.572C753.965 18.572 750.773 21.89 750.773 26.3C750.773 30.794 754.007 34.07 758.291 34.07C759.509 34.07 761.147 33.65 762.743 32.936ZM774.597 11.558H798.663V18.278H783.333V22.898H797.235V29.618H783.333V34.28H799.083V41H774.597V11.558Z" fill="#001B70"/>
<path d="M5.5076 79.5321L3.5406 84H0L8.6548 64.3581H12.1954L20.8502 84H17.3096L15.3426 79.5321H5.5076ZM13.9938 76.4692L10.4251 68.3764L6.8564 76.4692H13.9938ZM26.2788 75.9072V84H23.1316V69.0508H26.2788V71.7765C26.7846 70.8586 27.4777 70.1373 28.3582 69.6128C29.2574 69.0883 30.2221 68.826 31.2525 68.826C32.9385 68.826 34.2966 69.3412 35.327 70.3715C36.376 71.4018 36.9006 72.8911 36.9006 74.8394V84H33.7534V75.7948C33.7534 73.041 32.6106 71.6641 30.3252 71.6641C29.2386 71.6641 28.2926 72.0294 27.4871 72.76C26.6815 73.4719 26.2788 74.5209 26.2788 75.9072ZM51.5543 79.5321L49.5873 84H46.0467L54.7015 64.3581H58.2421L66.8969 84H63.3563L61.3893 79.5321H51.5543ZM60.0405 76.4692L56.4718 68.3764L52.9031 76.4692H60.0405ZM79.6315 77.1436V69.0508H82.7787V84H79.6315V81.2743C79.1257 82.1922 78.4232 82.9135 77.524 83.438C76.6435 83.9625 75.6881 84.2248 74.6578 84.2248C72.9718 84.2248 71.6042 83.7096 70.5552 82.6793C69.5248 81.649 69.0097 80.1597 69.0097 78.2114V69.0508H72.1569V77.256C72.1569 80.0098 73.2996 81.3867 75.5851 81.3867C76.6716 81.3867 77.6176 81.0308 78.4232 80.3189C79.2287 79.5883 79.6315 78.5299 79.6315 77.1436ZM91.2223 71.5798V79.1668C91.2223 79.8787 91.4096 80.45 91.7843 80.8809C92.1589 81.293 92.6835 81.4991 93.3579 81.4991C94.0323 81.4991 94.6786 81.1713 95.2968 80.5156L96.5894 82.7355C95.4841 83.7284 94.2571 84.2248 92.9083 84.2248C91.5782 84.2248 90.4355 83.7658 89.4801 82.8479C88.5434 81.9112 88.0751 80.6561 88.0751 79.0825V71.5798H86.1924V69.0508H88.0751V64.3581H91.2223V69.0508H95.1563V71.5798H91.2223ZM102.574 80.066C103.473 80.9652 104.606 81.4148 105.974 81.4148C107.341 81.4148 108.465 80.9652 109.346 80.066C110.245 79.1481 110.695 77.9679 110.695 76.5254C110.695 75.0829 110.245 73.9121 109.346 73.0129C108.465 72.095 107.341 71.636 105.974 71.636C104.606 71.636 103.473 72.095 102.574 73.0129C101.693 73.9121 101.253 75.0829 101.253 76.5254C101.253 77.9679 101.693 79.1481 102.574 80.066ZM111.594 82.0049C110.095 83.4848 108.222 84.2248 105.974 84.2248C103.726 84.2248 101.853 83.4848 100.354 82.0049C98.8552 80.5062 98.1059 78.6797 98.1059 76.5254C98.1059 74.3711 98.8552 72.5539 100.354 71.074C101.853 69.5753 103.726 68.826 105.974 68.826C108.222 68.826 110.095 69.5753 111.594 71.074C113.093 72.5539 113.842 74.3711 113.842 76.5254C113.842 78.6797 113.093 80.5062 111.594 82.0049ZM120.567 75.9072V84H117.42V69.0508H120.567V71.7765C121.073 70.8586 121.766 70.1373 122.647 69.6128C123.546 69.0883 124.511 68.826 125.541 68.826C127.227 68.826 128.585 69.3412 129.616 70.3715C130.665 71.4018 131.189 72.8911 131.189 74.8394V84H128.042V75.7948C128.042 73.041 126.899 71.6641 124.614 71.6641C123.527 71.6641 122.581 72.0294 121.776 72.76C120.97 73.4719 120.567 74.5209 120.567 75.9072ZM139.071 80.066C139.97 80.9652 141.103 81.4148 142.471 81.4148C143.838 81.4148 144.962 80.9652 145.843 80.066C146.742 79.1481 147.192 77.9679 147.192 76.5254C147.192 75.0829 146.742 73.9121 145.843 73.0129C144.962 72.095 143.838 71.636 142.471 71.636C141.103 71.636 139.97 72.095 139.071 73.0129C138.19 73.9121 137.75 75.0829 137.75 76.5254C137.75 77.9679 138.19 79.1481 139.071 80.066ZM148.091 82.0049C146.592 83.4848 144.719 84.2248 142.471 84.2248C140.223 84.2248 138.35 83.4848 136.851 82.0049C135.352 80.5062 134.603 78.6797 134.603 76.5254C134.603 74.3711 135.352 72.5539 136.851 71.074C138.35 69.5753 140.223 68.826 142.471 68.826C144.719 68.826 146.592 69.5753 148.091 71.074C149.59 72.5539 150.339 74.3711 150.339 76.5254C150.339 78.6797 149.59 80.5062 148.091 82.0049ZM157.065 75.9072V84H153.917V69.0508H157.065V71.7765C157.514 70.8586 158.189 70.1373 159.088 69.6128C160.006 69.0883 160.989 68.826 162.038 68.826C164.399 68.826 166 69.8001 166.843 71.7484C168.323 69.8001 170.168 68.826 172.379 68.826C174.065 68.826 175.423 69.3412 176.454 70.3715C177.503 71.4018 178.027 72.8911 178.027 74.8394V84H174.88V75.7948C174.88 73.041 173.737 71.6641 171.452 71.6641C170.384 71.6641 169.447 72.0107 168.642 72.7038C167.855 73.3782 167.443 74.3711 167.405 75.6824V84H164.258V75.7948C164.258 74.3711 164.005 73.3314 163.499 72.6757C162.994 72.0013 162.197 71.6641 161.111 71.6641C160.024 71.6641 159.078 72.0294 158.273 72.76C157.467 73.4719 157.065 74.5209 157.065 75.9072ZM185.886 80.066C186.785 80.9652 187.918 81.4148 189.286 81.4148C190.654 81.4148 191.778 80.9652 192.658 80.066C193.557 79.1481 194.007 77.9679 194.007 76.5254C194.007 75.0829 193.557 73.9121 192.658 73.0129C191.778 72.095 190.654 71.636 189.286 71.636C187.918 71.636 186.785 72.095 185.886 73.0129C185.005 73.9121 184.565 75.0829 184.565 76.5254C184.565 77.9679 185.005 79.1481 185.886 80.066ZM194.906 82.0049C193.407 83.4848 191.534 84.2248 189.286 84.2248C187.038 84.2248 185.165 83.4848 183.666 82.0049C182.167 80.5062 181.418 78.6797 181.418 76.5254C181.418 74.3711 182.167 72.5539 183.666 71.074C185.165 69.5753 187.038 68.826 189.286 68.826C191.534 68.826 193.407 69.5753 194.906 71.074C196.405 72.5539 197.154 74.3711 197.154 76.5254C197.154 78.6797 196.405 80.5062 194.906 82.0049ZM211.186 77.1436V69.0508H214.333V84H211.186V81.2743C210.68 82.1922 209.977 82.9135 209.078 83.438C208.198 83.9625 207.242 84.2248 206.212 84.2248C204.526 84.2248 203.158 83.7096 202.109 82.6793C201.079 81.649 200.564 80.1597 200.564 78.2114V69.0508H203.711V77.256C203.711 80.0098 204.854 81.3867 207.139 81.3867C208.226 81.3867 209.172 81.0308 209.977 80.3189C210.783 79.5883 211.186 78.5299 211.186 77.1436ZM229.548 79.5321C229.548 80.9558 229.033 82.0986 228.003 82.9603C226.973 83.8033 225.652 84.2248 224.041 84.2248C222.954 84.2248 221.821 84.0281 220.641 83.6347C219.479 83.2413 218.449 82.6887 217.55 81.9768L219.067 79.5321C220.809 80.8434 222.495 81.4991 224.125 81.4991C224.837 81.4991 225.399 81.3399 225.811 81.0214C226.223 80.6842 226.429 80.2627 226.429 79.7569C226.429 79.0076 225.437 78.3332 223.451 77.7337C223.301 77.6775 223.189 77.64 223.114 77.6213C220.004 76.7783 218.449 75.3733 218.449 73.4063C218.449 72.02 218.983 70.9148 220.051 70.0905C221.137 69.2475 222.542 68.826 224.266 68.826C225.989 68.826 227.619 69.3318 229.155 70.3434L227.975 72.6757C226.757 71.8702 225.437 71.4674 224.013 71.4674C223.263 71.4674 222.655 71.6079 222.186 71.8889C221.718 72.1512 221.484 72.5539 221.484 73.0972C221.484 73.5843 221.727 73.9402 222.214 74.165C222.552 74.3336 223.02 74.4928 223.619 74.6427C224.238 74.7926 224.781 74.9424 225.249 75.0923C225.718 75.2422 226.167 75.4108 226.598 75.5981C227.048 75.7854 227.525 76.0477 228.031 76.3849C229.043 77.0593 229.548 78.1084 229.548 79.5321ZM240.588 64.3581H243.904V84H240.588V64.3581ZM252.039 75.9072V84H248.892V69.0508H252.039V71.7765C252.545 70.8586 253.238 70.1373 254.119 69.6128C255.018 69.0883 255.983 68.826 257.013 68.826C258.699 68.826 260.057 69.3412 261.087 70.3715C262.136 71.4018 262.661 72.8911 262.661 74.8394V84H259.514V75.7948C259.514 73.041 258.371 71.6641 256.086 71.6641C254.999 71.6641 254.053 72.0294 253.248 72.76C252.442 73.4719 252.039 74.5209 252.039 75.9072ZM277.708 79.5321C277.708 80.9558 277.193 82.0986 276.163 82.9603C275.132 83.8033 273.812 84.2248 272.201 84.2248C271.114 84.2248 269.981 84.0281 268.8 83.6347C267.639 83.2413 266.609 82.6887 265.709 81.9768L267.227 79.5321C268.969 80.8434 270.655 81.4991 272.285 81.4991C272.997 81.4991 273.559 81.3399 273.971 81.0214C274.383 80.6842 274.589 80.2627 274.589 79.7569C274.589 79.0076 273.596 78.3332 271.61 77.7337C271.461 77.6775 271.348 77.64 271.273 77.6213C268.164 76.7783 266.609 75.3733 266.609 73.4063C266.609 72.02 267.143 70.9148 268.21 70.0905C269.297 69.2475 270.702 68.826 272.425 68.826C274.149 68.826 275.779 69.3318 277.315 70.3434L276.135 72.6757C274.917 71.8702 273.596 71.4674 272.172 71.4674C271.423 71.4674 270.814 71.6079 270.346 71.8889C269.878 72.1512 269.643 72.5539 269.643 73.0972C269.643 73.5843 269.887 73.9402 270.374 74.165C270.711 74.3336 271.18 74.4928 271.779 74.6427C272.397 74.7926 272.941 74.9424 273.409 75.0923C273.877 75.2422 274.327 75.4108 274.758 75.5981C275.207 75.7854 275.685 76.0477 276.191 76.3849C277.202 77.0593 277.708 78.1084 277.708 79.5321ZM285.151 71.5798V79.1668C285.151 79.8787 285.338 80.45 285.713 80.8809C286.087 81.293 286.612 81.4991 287.286 81.4991C287.961 81.4991 288.607 81.1713 289.225 80.5156L290.518 82.7355C289.413 83.7284 288.185 84.2248 286.837 84.2248C285.507 84.2248 284.364 83.7658 283.408 82.8479C282.472 81.9112 282.003 80.6561 282.003 79.0825V71.5798H280.121V69.0508H282.003V64.3581H285.151V69.0508H289.085V71.5798H285.151ZM296.165 84H293.018V69.0508H296.165V84ZM293.214 66.0722C292.821 65.6788 292.624 65.2105 292.624 64.6672C292.624 64.1239 292.821 63.6556 293.214 63.2622C293.608 62.8688 294.076 62.6721 294.619 62.6721C295.163 62.6721 295.631 62.8688 296.024 63.2622C296.418 63.6556 296.615 64.1239 296.615 64.6672C296.615 65.2105 296.418 65.6788 296.024 66.0722C295.631 66.4656 295.163 66.6623 294.619 66.6623C294.076 66.6623 293.608 66.4656 293.214 66.0722ZM304.607 71.5798V79.1668C304.607 79.8787 304.794 80.45 305.169 80.8809C305.543 81.293 306.068 81.4991 306.742 81.4991C307.417 81.4991 308.063 81.1713 308.681 80.5156L309.974 82.7355C308.868 83.7284 307.641 84.2248 306.293 84.2248C304.963 84.2248 303.82 83.7658 302.864 82.8479C301.928 81.9112 301.459 80.6561 301.459 79.0825V71.5798H299.577V69.0508H301.459V64.3581H304.607V69.0508H308.541V71.5798H304.607ZM322.927 77.1436V69.0508H326.074V84H322.927V81.2743C322.421 82.1922 321.719 82.9135 320.819 83.438C319.939 83.9625 318.984 84.2248 317.953 84.2248C316.267 84.2248 314.9 83.7096 313.851 82.6793C312.82 81.649 312.305 80.1597 312.305 78.2114V69.0508H315.452V77.256C315.452 80.0098 316.595 81.3867 318.881 81.3867C319.967 81.3867 320.913 81.0308 321.719 80.3189C322.524 79.5883 322.927 78.5299 322.927 77.1436ZM334.518 71.5798V79.1668C334.518 79.8787 334.705 80.45 335.08 80.8809C335.454 81.293 335.979 81.4991 336.653 81.4991C337.328 81.4991 337.974 81.1713 338.592 80.5156L339.885 82.7355C338.78 83.7284 337.553 84.2248 336.204 84.2248C334.874 84.2248 333.731 83.7658 332.776 82.8479C331.839 81.9112 331.371 80.6561 331.371 79.0825V71.5798H329.488V69.0508H331.371V64.3581H334.518V69.0508H338.452V71.5798H334.518ZM345.532 84H342.385V69.0508H345.532V84ZM342.582 66.0722C342.188 65.6788 341.991 65.2105 341.991 64.6672C341.991 64.1239 342.188 63.6556 342.582 63.2622C342.975 62.8688 343.443 62.6721 343.987 62.6721C344.53 62.6721 344.998 62.8688 345.392 63.2622C345.785 63.6556 345.982 64.1239 345.982 64.6672C345.982 65.2105 345.785 65.6788 345.392 66.0722C344.998 66.4656 344.53 66.6623 343.987 66.6623C343.443 66.6623 342.975 66.4656 342.582 66.0722ZM353.58 80.066C354.48 80.9652 355.613 81.4148 356.98 81.4148C358.348 81.4148 359.472 80.9652 360.352 80.066C361.252 79.1481 361.701 77.9679 361.701 76.5254C361.701 75.0829 361.252 73.9121 360.352 73.0129C359.472 72.095 358.348 71.636 356.98 71.636C355.613 71.636 354.48 72.095 353.58 73.0129C352.7 73.9121 352.26 75.0829 352.26 76.5254C352.26 77.9679 352.7 79.1481 353.58 80.066ZM362.6 82.0049C361.102 83.4848 359.228 84.2248 356.98 84.2248C354.732 84.2248 352.859 83.4848 351.36 82.0049C349.862 80.5062 349.112 78.6797 349.112 76.5254C349.112 74.3711 349.862 72.5539 351.36 71.074C352.859 69.5753 354.732 68.826 356.98 68.826C359.228 68.826 361.102 69.5753 362.6 71.074C364.099 72.5539 364.848 74.3711 364.848 76.5254C364.848 78.6797 364.099 80.5062 362.6 82.0049ZM371.574 75.9072V84H368.427V69.0508H371.574V71.7765C372.08 70.8586 372.773 70.1373 373.653 69.6128C374.553 69.0883 375.517 68.826 376.548 68.826C378.234 68.826 379.592 69.3412 380.622 70.3715C381.671 71.4018 382.196 72.8911 382.196 74.8394V84H379.049V75.7948C379.049 73.041 377.906 71.6641 375.62 71.6641C374.534 71.6641 373.588 72.0294 372.782 72.76C371.977 73.4719 371.574 74.5209 371.574 75.9072ZM393.787 88.2993V62.0258H396.119V88.2993H393.787ZM411.092 79.5321L409.125 84H405.584L414.239 64.3581H417.779L426.434 84H422.894L420.927 79.5321H411.092ZM419.578 76.4692L416.009 68.3764L412.44 76.4692H419.578ZM432.593 67.8144V69.0508H436.527V71.5798H432.593V84H429.446V71.5798H427.563V69.0508H429.446V67.8987C429.446 66.3251 429.914 65.0793 430.851 64.1614C431.807 63.2247 432.949 62.7564 434.279 62.7564C435.628 62.7564 436.855 63.2528 437.96 64.2457L436.668 66.4656C436.05 65.8099 435.403 65.4821 434.729 65.4821C434.055 65.4821 433.53 65.6975 433.155 66.1284C432.781 66.5405 432.593 67.1025 432.593 67.8144ZM443.433 67.8144V69.0508H447.367V71.5798H443.433V84H440.286V71.5798H438.403V69.0508H440.286V67.8987C440.286 66.3251 440.754 65.0793 441.691 64.1614C442.646 63.2247 443.789 62.7564 445.119 62.7564C446.468 62.7564 447.695 63.2528 448.8 64.2457L447.507 66.4656C446.889 65.8099 446.243 65.4821 445.568 65.4821C444.894 65.4821 444.369 65.6975 443.995 66.1284C443.62 66.5405 443.433 67.1025 443.433 67.8144ZM453.541 84H450.394V69.0508H453.541V84ZM450.591 66.0722C450.198 65.6788 450.001 65.2105 450.001 64.6672C450.001 64.1239 450.198 63.6556 450.591 63.2622C450.984 62.8688 451.453 62.6721 451.996 62.6721C452.539 62.6721 453.008 62.8688 453.401 63.2622C453.794 63.6556 453.991 64.1239 453.991 64.6672C453.991 65.2105 453.794 65.6788 453.401 66.0722C453.008 66.4656 452.539 66.6623 451.996 66.6623C451.453 66.6623 450.984 66.4656 450.591 66.0722ZM461.253 84H458.105V63.1498H461.253V84ZM468.964 84H465.816V69.0508H468.964V84ZM466.013 66.0722C465.62 65.6788 465.423 65.2105 465.423 64.6672C465.423 64.1239 465.62 63.6556 466.013 63.2622C466.406 62.8688 466.875 62.6721 467.418 62.6721C467.961 62.6721 468.43 62.8688 468.823 63.2622C469.216 63.6556 469.413 64.1239 469.413 64.6672C469.413 65.2105 469.216 65.6788 468.823 66.0722C468.43 66.4656 467.961 66.6623 467.418 66.6623C466.875 66.6623 466.406 66.4656 466.013 66.0722ZM485.638 84H482.772V82.0049C481.536 83.4848 479.878 84.2248 477.799 84.2248C476.244 84.2248 474.951 83.7846 473.921 82.9041C472.909 82.0236 472.403 80.8528 472.403 79.3916C472.403 77.9117 472.947 76.8064 474.033 76.0758C475.12 75.3452 476.59 74.9799 478.445 74.9799H482.519V74.4179C482.519 72.4322 481.414 71.4393 479.204 71.4393C477.817 71.4393 476.375 71.9451 474.876 72.9567L473.471 70.9897C475.288 69.5472 477.349 68.826 479.653 68.826C481.414 68.826 482.847 69.2756 483.952 70.1748C485.076 71.0553 485.638 72.4509 485.638 74.3617V84ZM482.491 78.4362V77.1717H478.951C476.684 77.1717 475.551 77.8836 475.551 79.3073C475.551 80.0379 475.832 80.5999 476.394 80.9933C476.956 81.368 477.733 81.5553 478.726 81.5553C479.737 81.5553 480.618 81.2743 481.367 80.7123C482.117 80.1503 482.491 79.3916 482.491 78.4362ZM493.897 71.5798V79.1668C493.897 79.8787 494.085 80.45 494.459 80.8809C494.834 81.293 495.359 81.4991 496.033 81.4991C496.707 81.4991 497.354 81.1713 497.972 80.5156L499.265 82.7355C498.159 83.7284 496.932 84.2248 495.583 84.2248C494.253 84.2248 493.111 83.7658 492.155 82.8479C491.219 81.9112 490.75 80.6561 490.75 79.0825V71.5798H488.868V69.0508H490.75V64.3581H493.897V69.0508H497.831V71.5798H493.897ZM515.674 77.9023H503.956C504.031 78.9888 504.528 79.8693 505.446 80.5437C506.364 81.1994 507.413 81.5272 508.593 81.5272C510.466 81.5272 511.89 80.9371 512.864 79.7569L514.662 81.7239C513.051 83.3912 510.953 84.2248 508.368 84.2248C506.27 84.2248 504.481 83.5317 503.001 82.1454C501.54 80.7404 500.809 78.8671 500.809 76.5254C500.809 74.165 501.559 72.2917 503.057 70.9054C504.556 69.5191 506.317 68.826 508.34 68.826C510.382 68.826 512.115 69.4442 513.538 70.6806C514.962 71.8983 515.674 73.5843 515.674 75.7386V77.9023ZM503.956 75.4295H512.527C512.527 74.1744 512.133 73.2096 511.347 72.5352C510.56 71.8608 509.586 71.5236 508.424 71.5236C507.282 71.5236 506.251 71.8795 505.333 72.5914C504.415 73.2845 503.956 74.2306 503.956 75.4295ZM525.233 84.2248C523.341 84.2248 521.692 83.5129 520.287 82.0892C518.882 80.6655 518.18 78.7921 518.18 76.4692C518.18 74.1463 518.901 72.2917 520.343 70.9054C521.786 69.5191 523.5 68.826 525.486 68.826C527.49 68.826 529.101 69.669 530.319 71.355V63.1498H533.466V84H530.319V81.752C529.157 83.4005 527.462 84.2248 525.233 84.2248ZM521.327 76.6097C521.327 78.0334 521.786 79.1949 522.704 80.0941C523.622 80.9933 524.699 81.4429 525.935 81.4429C527.172 81.4429 528.221 80.9933 529.082 80.0941C529.944 79.1762 530.375 78.0053 530.375 76.5816C530.375 75.1579 529.944 73.9683 529.082 73.0129C528.221 72.0575 527.162 71.5798 525.907 71.5798C524.652 71.5798 523.575 72.0575 522.676 73.0129C521.776 73.9683 521.327 75.1672 521.327 76.6097ZM548.918 71.5798V79.1668C548.918 79.8787 549.105 80.45 549.48 80.8809C549.854 81.293 550.379 81.4991 551.053 81.4991C551.728 81.4991 552.374 81.1713 552.992 80.5156L554.285 82.7355C553.179 83.7284 551.952 84.2248 550.604 84.2248C549.273 84.2248 548.131 83.7658 547.175 82.8479C546.239 81.9112 545.77 80.6561 545.77 79.0825V71.5798H543.888V69.0508H545.77V64.3581H548.918V69.0508H552.852V71.5798H548.918ZM560.269 80.066C561.168 80.9652 562.302 81.4148 563.669 81.4148C565.037 81.4148 566.161 80.9652 567.041 80.066C567.94 79.1481 568.39 77.9679 568.39 76.5254C568.39 75.0829 567.94 73.9121 567.041 73.0129C566.161 72.095 565.037 71.636 563.669 71.636C562.302 71.636 561.168 72.095 560.269 73.0129C559.389 73.9121 558.948 75.0829 558.948 76.5254C558.948 77.9679 559.389 79.1481 560.269 80.066ZM569.289 82.0049C567.79 83.4848 565.917 84.2248 563.669 84.2248C561.421 84.2248 559.548 83.4848 558.049 82.0049C556.55 80.5062 555.801 78.6797 555.801 76.5254C555.801 74.3711 556.55 72.5539 558.049 71.074C559.548 69.5753 561.421 68.826 563.669 68.826C565.917 68.826 567.79 69.5753 569.289 71.074C570.788 72.5539 571.537 74.3711 571.537 76.5254C571.537 78.6797 570.788 80.5062 569.289 82.0049ZM585.372 79.5321L583.405 84H579.864L588.519 64.3581H592.06L600.715 84H597.174L595.207 79.5321H585.372ZM593.858 76.4692L590.289 68.3764L586.721 76.4692H593.858ZM606.143 75.9072V84H602.996V69.0508H606.143V71.7765C606.649 70.8586 607.342 70.1373 608.223 69.6128C609.122 69.0883 610.087 68.826 611.117 68.826C612.803 68.826 614.161 69.3412 615.191 70.3715C616.24 71.4018 616.765 72.8911 616.765 74.8394V84H613.618V75.7948C613.618 73.041 612.475 71.6641 610.19 71.6641C609.103 71.6641 608.157 72.0294 607.351 72.76C606.546 73.4719 606.143 74.5209 606.143 75.9072ZM624.309 75.9072V84H621.162V69.0508H624.309V71.7765C624.815 70.8586 625.508 70.1373 626.389 69.6128C627.288 69.0883 628.253 68.826 629.283 68.826C630.969 68.826 632.327 69.3412 633.358 70.3715C634.407 71.4018 634.931 72.8911 634.931 74.8394V84H631.784V75.7948C631.784 73.041 630.641 71.6641 628.356 71.6641C627.269 71.6641 626.323 72.0294 625.518 72.76C624.712 73.4719 624.309 74.5209 624.309 75.9072ZM651.439 84H648.573V82.0049C647.337 83.4848 645.679 84.2248 643.6 84.2248C642.045 84.2248 640.752 83.7846 639.722 82.9041C638.71 82.0236 638.204 80.8528 638.204 79.3916C638.204 77.9117 638.748 76.8064 639.834 76.0758C640.921 75.3452 642.391 74.9799 644.246 74.9799H648.32V74.4179C648.32 72.4322 647.215 71.4393 645.005 71.4393C643.618 71.4393 642.176 71.9451 640.677 72.9567L639.272 70.9897C641.089 69.5472 643.15 68.826 645.454 68.826C647.215 68.826 648.648 69.2756 649.753 70.1748C650.877 71.0553 651.439 72.4509 651.439 74.3617V84ZM648.292 78.4362V77.1717H644.752C642.485 77.1717 641.352 77.8836 641.352 79.3073C641.352 80.0379 641.633 80.5999 642.195 80.9933C642.757 81.368 643.534 81.5553 644.527 81.5553C645.538 81.5553 646.419 81.2743 647.168 80.7123C647.918 80.1503 648.292 79.3916 648.292 78.4362ZM667.707 79.504C668.606 80.5531 669.824 81.0776 671.36 81.0776C672.896 81.0776 674.114 80.5531 675.013 79.504C675.912 78.4549 676.362 77.0312 676.362 75.2328V64.3581H679.678V75.3733C679.678 78.202 678.9 80.3845 677.345 81.9206C675.79 83.438 673.795 84.1967 671.36 84.1967C668.925 84.1967 666.929 83.438 665.375 81.9206C663.82 80.3845 663.042 78.202 663.042 75.3733V64.3581H666.358V75.2328C666.358 77.0312 666.808 78.4549 667.707 79.504ZM687.562 75.9072V84H684.415V69.0508H687.562V71.7765C688.068 70.8586 688.761 70.1373 689.641 69.6128C690.54 69.0883 691.505 68.826 692.535 68.826C694.221 68.826 695.58 69.3412 696.61 70.3715C697.659 71.4018 698.184 72.8911 698.184 74.8394V84H695.036V75.7948C695.036 73.041 693.894 71.6641 691.608 71.6641C690.522 71.6641 689.576 72.0294 688.77 72.76C687.965 73.4719 687.562 74.5209 687.562 75.9072ZM705.728 84H702.581V69.0508H705.728V84ZM702.777 66.0722C702.384 65.6788 702.187 65.2105 702.187 64.6672C702.187 64.1239 702.384 63.6556 702.777 63.2622C703.171 62.8688 703.639 62.6721 704.182 62.6721C704.726 62.6721 705.194 62.8688 705.587 63.2622C705.981 63.6556 706.178 64.1239 706.178 64.6672C706.178 65.2105 705.981 65.6788 705.587 66.0722C705.194 66.4656 704.726 66.6623 704.182 66.6623C703.639 66.6623 703.171 66.4656 702.777 66.0722ZM714.254 84L708.241 69.0508H711.5L716.052 80.347L720.605 69.0508H723.864L717.851 84H714.254ZM740.282 77.9023H728.564C728.639 78.9888 729.136 79.8693 730.054 80.5437C730.972 81.1994 732.021 81.5272 733.201 81.5272C735.074 81.5272 736.498 80.9371 737.472 79.7569L739.27 81.7239C737.659 83.3912 735.561 84.2248 732.976 84.2248C730.878 84.2248 729.089 83.5317 727.609 82.1454C726.148 80.7404 725.417 78.8671 725.417 76.5254C725.417 74.165 726.166 72.2917 727.665 70.9054C729.164 69.5191 730.925 68.826 732.948 68.826C734.99 68.826 736.723 69.4442 738.146 70.6806C739.57 71.8983 740.282 73.5843 740.282 75.7386V77.9023ZM728.564 75.4295H737.135C737.135 74.1744 736.741 73.2096 735.955 72.5352C735.168 71.8608 734.194 71.5236 733.032 71.5236C731.889 71.5236 730.859 71.8795 729.941 72.5914C729.023 73.2845 728.564 74.2306 728.564 75.4295ZM751.583 72.0013C750.028 72.0013 748.857 72.5071 748.07 73.5187C747.283 74.5303 746.89 75.8885 746.89 77.5932V84H743.743V69.0508H746.89V72.0575C747.396 71.1208 748.08 70.3528 748.941 69.7533C749.822 69.1538 750.749 68.8447 751.723 68.826L751.751 72.0013C751.695 72.0013 751.639 72.0013 751.583 72.0013ZM765.561 79.5321C765.561 80.9558 765.046 82.0986 764.016 82.9603C762.986 83.8033 761.665 84.2248 760.054 84.2248C758.967 84.2248 757.834 84.0281 756.654 83.6347C755.492 83.2413 754.462 82.6887 753.563 81.9768L755.08 79.5321C756.822 80.8434 758.508 81.4991 760.138 81.4991C760.85 81.4991 761.412 81.3399 761.824 81.0214C762.236 80.6842 762.442 80.2627 762.442 79.7569C762.442 79.0076 761.449 78.3332 759.464 77.7337C759.314 77.6775 759.201 77.64 759.127 77.6213C756.017 76.7783 754.462 75.3733 754.462 73.4063C754.462 72.02 754.996 70.9148 756.064 70.0905C757.15 69.2475 758.555 68.826 760.279 68.826C762.002 68.826 763.632 69.3318 765.168 70.3434L763.988 72.6757C762.77 71.8702 761.449 71.4674 760.026 71.4674C759.276 71.4674 758.668 71.6079 758.199 71.8889C757.731 72.1512 757.497 72.5539 757.497 73.0972C757.497 73.5843 757.74 73.9402 758.227 74.165C758.565 74.3336 759.033 74.4928 759.632 74.6427C760.251 74.7926 760.794 74.9424 761.262 75.0923C761.73 75.2422 762.18 75.4108 762.611 75.5981C763.061 75.7854 763.538 76.0477 764.044 76.3849C765.056 77.0593 765.561 78.1084 765.561 79.5321ZM772.273 84H769.126V69.0508H772.273V84ZM769.323 66.0722C768.929 65.6788 768.733 65.2105 768.733 64.6672C768.733 64.1239 768.929 63.6556 769.323 63.2622C769.716 62.8688 770.185 62.6721 770.728 62.6721C771.271 62.6721 771.739 62.8688 772.133 63.2622C772.526 63.6556 772.723 64.1239 772.723 64.6672C772.723 65.2105 772.526 65.6788 772.133 66.0722C771.739 66.4656 771.271 66.6623 770.728 66.6623C770.185 66.6623 769.716 66.4656 769.323 66.0722ZM780.715 71.5798V79.1668C780.715 79.8787 780.902 80.45 781.277 80.8809C781.652 81.293 782.176 81.4991 782.851 81.4991C783.525 81.4991 784.171 81.1713 784.79 80.5156L786.082 82.7355C784.977 83.7284 783.75 84.2248 782.401 84.2248C781.071 84.2248 779.928 83.7658 778.973 82.8479C778.036 81.9112 777.568 80.6561 777.568 79.0825V71.5798H775.685V69.0508H777.568V64.3581H780.715V69.0508H784.649V71.5798H780.715ZM790.465 89.9572C789.097 89.9572 787.861 89.4608 786.756 88.4679L788.189 85.9108C788.844 86.529 789.519 86.8381 790.212 86.8381C790.924 86.8381 791.495 86.5852 791.926 86.0794C792.376 85.5736 792.6 85.021 792.6 84.4215C792.6 84.1592 790.587 79.0357 786.559 69.0508H789.931L794.399 80.066L798.867 69.0508H802.239L794.989 86.81C794.558 87.7841 793.94 88.5522 793.134 89.1142C792.329 89.6762 791.439 89.9572 790.465 89.9572Z" fill="#AF005F"/>
<path d="M5.5076 116.532L3.5406 121H0L8.6548 101.358H12.1954L20.8502 121H17.3096L15.3426 116.532H5.5076ZM13.9938 113.469L10.4251 105.376L6.8564 113.469H13.9938ZM29.7632 121.225C27.6838 121.225 25.8947 120.522 24.3961 119.117C22.8974 117.694 22.1481 115.839 22.1481 113.553C22.1481 111.268 22.9255 109.413 24.4804 107.99C26.054 106.547 27.9648 105.826 30.2128 105.826C32.4608 105.826 34.3622 106.603 35.9171 108.158L34.0625 110.434C32.7699 109.31 31.4679 108.748 30.1566 108.748C28.8452 108.748 27.7025 109.189 26.7284 110.069C25.773 110.931 25.2953 112.055 25.2953 113.441C25.2953 114.809 25.773 115.97 26.7284 116.925C27.6838 117.881 28.8546 118.359 30.2409 118.359C31.6459 118.359 32.9666 117.722 34.203 116.448L36.0576 118.471C34.2404 120.307 32.1423 121.225 29.7632 121.225ZM45.9536 121.225C43.8742 121.225 42.0852 120.522 40.5865 119.117C39.0878 117.694 38.3385 115.839 38.3385 113.553C38.3385 111.268 39.1159 109.413 40.6708 107.99C42.2444 106.547 44.1552 105.826 46.4032 105.826C48.6512 105.826 50.5526 106.603 52.1075 108.158L50.2529 110.434C48.9603 109.31 47.6583 108.748 46.347 108.748C45.0357 108.748 43.8929 109.189 42.9188 110.069C41.9634 110.931 41.4857 112.055 41.4857 113.441C41.4857 114.809 41.9634 115.97 42.9188 116.925C43.8742 117.881 45.045 118.359 46.4313 118.359C47.8363 118.359 49.157 117.722 50.3934 116.448L52.248 118.471C50.4309 120.307 48.3327 121.225 45.9536 121.225ZM63.3523 109.001C61.7975 109.001 60.6266 109.507 59.8398 110.519C59.053 111.53 58.6596 112.888 58.6596 114.593V121H55.5124V106.051H58.6596V109.057C59.1654 108.121 59.8492 107.353 60.7109 106.753C61.5914 106.154 62.5187 105.845 63.4928 105.826L63.5209 109.001C63.4647 109.001 63.4085 109.001 63.3523 109.001ZM80.5906 114.902H68.8729C68.9478 115.989 69.4443 116.869 70.3622 117.544C71.2801 118.199 72.3292 118.527 73.5094 118.527C75.3827 118.527 76.8065 117.937 77.7806 116.757L79.579 118.724C77.9679 120.391 75.8698 121.225 73.2846 121.225C71.1865 121.225 69.3974 120.532 67.9175 119.145C66.4563 117.74 65.7257 115.867 65.7257 113.525C65.7257 111.165 66.475 109.292 67.9737 107.905C69.4724 106.519 71.2333 105.826 73.2565 105.826C75.2984 105.826 77.0313 106.444 78.455 107.681C79.8787 108.898 80.5906 110.584 80.5906 112.739V114.902ZM68.8729 112.429H77.4434C77.4434 111.174 77.05 110.21 76.2632 109.535C75.4764 108.861 74.5023 108.524 73.3408 108.524C72.1981 108.524 71.1677 108.88 70.2498 109.591C69.3319 110.285 68.8729 111.231 68.8729 112.429ZM90.1492 121.225C88.2571 121.225 86.6086 120.513 85.2036 119.089C83.7986 117.665 83.0961 115.792 83.0961 113.469C83.0961 111.146 83.8173 109.292 85.2598 107.905C86.7023 106.519 88.4164 105.826 90.4021 105.826C92.4066 105.826 94.0176 106.669 95.2353 108.355V100.15H98.3825V121H95.2353V118.752C94.0738 120.401 92.3785 121.225 90.1492 121.225ZM86.2433 113.61C86.2433 115.033 86.7023 116.195 87.6202 117.094C88.5381 117.993 89.6153 118.443 90.8517 118.443C92.0881 118.443 93.1372 117.993 93.9989 117.094C94.8606 116.176 95.2915 115.005 95.2915 113.582C95.2915 112.158 94.8606 110.968 93.9989 110.013C93.1372 109.057 92.0787 108.58 90.8236 108.58C89.5685 108.58 88.4913 109.057 87.5921 110.013C86.6929 110.968 86.2433 112.167 86.2433 113.61ZM106.078 121H102.931V106.051H106.078V121ZM103.128 103.072C102.734 102.679 102.538 102.21 102.538 101.667C102.538 101.124 102.734 100.656 103.128 100.262C103.521 99.8688 103.99 99.6721 104.533 99.6721C105.076 99.6721 105.544 99.8688 105.938 100.262C106.331 100.656 106.528 101.124 106.528 101.667C106.528 102.21 106.331 102.679 105.938 103.072C105.544 103.466 105.076 103.662 104.533 103.662C103.99 103.662 103.521 103.466 103.128 103.072ZM114.52 108.58V116.167C114.52 116.879 114.707 117.45 115.082 117.881C115.457 118.293 115.981 118.499 116.656 118.499C117.33 118.499 117.976 118.171 118.595 117.516L119.887 119.735C118.782 120.728 117.555 121.225 116.206 121.225C114.876 121.225 113.733 120.766 112.778 119.848C111.841 118.911 111.373 117.656 111.373 116.082V108.58H109.49V106.051H111.373V101.358H114.52V106.051H118.454V108.58H114.52ZM136.297 114.902H124.579C124.654 115.989 125.15 116.869 126.068 117.544C126.986 118.199 128.035 118.527 129.215 118.527C131.089 118.527 132.513 117.937 133.487 116.757L135.285 118.724C133.674 120.391 131.576 121.225 128.991 121.225C126.893 121.225 125.103 120.532 123.624 119.145C122.162 117.74 121.432 115.867 121.432 113.525C121.432 111.165 122.181 109.292 123.68 107.905C125.178 106.519 126.939 105.826 128.963 105.826C131.004 105.826 132.737 106.444 134.161 107.681C135.585 108.898 136.297 110.584 136.297 112.739V114.902ZM124.579 112.429H133.149C133.149 111.174 132.756 110.21 131.969 109.535C131.182 108.861 130.208 108.524 129.047 108.524C127.904 108.524 126.874 108.88 125.956 109.591C125.038 110.285 124.579 111.231 124.579 112.429ZM145.855 121.225C143.963 121.225 142.315 120.513 140.91 119.089C139.505 117.665 138.802 115.792 138.802 113.469C138.802 111.146 139.523 109.292 140.966 107.905C142.408 106.519 144.122 105.826 146.108 105.826C148.113 105.826 149.724 106.669 150.941 108.355V100.15H154.089V121H150.941V118.752C149.78 120.401 148.085 121.225 145.855 121.225ZM141.949 113.61C141.949 115.033 142.408 116.195 143.326 117.094C144.244 117.993 145.321 118.443 146.558 118.443C147.794 118.443 148.843 117.993 149.705 117.094C150.567 116.176 150.998 115.005 150.998 113.582C150.998 112.158 150.567 110.968 149.705 110.013C148.843 109.057 147.785 108.58 146.53 108.58C145.275 108.58 144.197 109.057 143.298 110.013C142.399 110.968 141.949 112.167 141.949 113.61ZM173.671 105.826C175.675 105.826 177.389 106.519 178.813 107.905C180.237 109.292 180.949 111.137 180.949 113.441C180.949 115.745 180.237 117.619 178.813 119.061C177.408 120.504 175.76 121.225 173.867 121.225C171.994 121.225 170.308 120.401 168.809 118.752V121H165.662V100.15H168.809V108.664C170.046 106.772 171.666 105.826 173.671 105.826ZM168.753 113.553C168.753 114.977 169.184 116.148 170.046 117.066C170.908 117.965 171.957 118.415 173.193 118.415C174.429 118.415 175.507 117.965 176.425 117.066C177.342 116.167 177.801 115.005 177.801 113.582C177.801 112.139 177.352 110.95 176.453 110.013C175.553 109.057 174.476 108.58 173.221 108.58C171.966 108.58 170.908 109.057 170.046 110.013C169.184 110.95 168.753 112.13 168.753 113.553ZM186.425 126.957C185.057 126.957 183.821 126.461 182.715 125.468L184.149 122.911C184.804 123.529 185.479 123.838 186.172 123.838C186.884 123.838 187.455 123.585 187.886 123.079C188.335 122.574 188.56 122.021 188.56 121.422C188.56 121.159 186.546 116.036 182.519 106.051H185.891L190.359 117.066L194.827 106.051H198.199L190.949 123.81C190.518 124.784 189.9 125.552 189.094 126.114C188.289 126.676 187.399 126.957 186.425 126.957ZM284.645 121.225C282.809 121.225 281.245 120.719 279.953 119.707C278.66 118.677 278.014 117.272 278.014 115.492C278.014 113.376 279.55 111.493 282.622 109.844C281.854 108.964 281.311 108.243 280.992 107.681C280.693 107.119 280.543 106.407 280.543 105.545C280.543 104.046 281.095 102.894 282.201 102.089C283.306 101.283 284.608 100.88 286.107 100.88C287.605 100.88 288.879 101.264 289.928 102.032C290.977 102.801 291.502 103.878 291.502 105.264C291.502 107.119 290.003 108.87 287.006 110.519C288.504 112.355 289.722 113.76 290.659 114.734C291.239 113.872 291.689 112.87 292.008 111.727L294.312 113.357C293.825 114.649 293.272 115.783 292.654 116.757C293.403 117.525 294.359 118.452 295.52 119.539L293.413 121.506L290.827 118.949C289.179 120.466 287.118 121.225 284.645 121.225ZM281.133 115.633C281.133 116.476 281.489 117.169 282.201 117.712C282.912 118.237 283.859 118.499 285.039 118.499C286.219 118.499 287.474 117.956 288.804 116.869C286.912 114.884 285.413 113.216 284.308 111.867C282.191 113.01 281.133 114.265 281.133 115.633ZM286.078 103.381C285.46 103.381 284.898 103.578 284.392 103.971C283.905 104.365 283.662 104.824 283.662 105.348C283.662 105.873 283.784 106.351 284.027 106.781C284.289 107.194 284.73 107.774 285.348 108.524C287.465 107.475 288.523 106.5 288.523 105.601C288.523 104.852 288.27 104.299 287.764 103.943C287.277 103.569 286.715 103.381 286.078 103.381ZM405.362 121H401.765L396.595 106.051H399.855L403.564 117.347L407.273 106.051H410.533L414.242 117.347L417.951 106.051H421.211L416.04 121H412.443L408.903 110.772L405.362 121ZM427.143 121H423.996V106.051H427.143V121ZM424.192 103.072C423.799 102.679 423.602 102.21 423.602 101.667C423.602 101.124 423.799 100.656 424.192 100.262C424.586 99.8688 425.054 99.6721 425.597 99.6721C426.141 99.6721 426.609 99.8688 427.002 100.262C427.396 100.656 427.592 101.124 427.592 101.667C427.592 102.21 427.396 102.679 427.002 103.072C426.609 103.466 426.141 103.662 425.597 103.662C425.054 103.662 424.586 103.466 424.192 103.072ZM435.584 108.58V116.167C435.584 116.879 435.772 117.45 436.146 117.881C436.521 118.293 437.046 118.499 437.72 118.499C438.394 118.499 439.041 118.171 439.659 117.516L440.952 119.735C439.846 120.728 438.619 121.225 437.27 121.225C435.94 121.225 434.798 120.766 433.842 119.848C432.906 118.911 432.437 117.656 432.437 116.082V108.58H430.555V106.051H432.437V101.358H435.584V106.051H439.518V108.58H435.584ZM446.599 112.907V121H443.452V100.178H446.599V108.776C447.048 107.859 447.723 107.137 448.622 106.613C449.54 106.088 450.523 105.826 451.573 105.826C453.259 105.826 454.617 106.341 455.647 107.371C456.696 108.402 457.221 109.891 457.221 111.839V121H454.073V112.795C454.073 110.041 452.931 108.664 450.645 108.664C449.559 108.664 448.613 109.029 447.807 109.76C447.002 110.472 446.599 111.521 446.599 112.907ZM482.693 111.446H486.009V118.162C484.154 120.204 481.503 121.225 478.056 121.225C475.153 121.225 472.717 120.269 470.75 118.359C468.802 116.448 467.828 114.031 467.828 111.109C467.828 108.186 468.821 105.751 470.806 103.803C472.811 101.855 475.228 100.88 478.056 100.88C480.885 100.88 483.236 101.705 485.109 103.353L483.339 105.882C482.571 105.227 481.794 104.777 481.007 104.533C480.239 104.271 479.34 104.14 478.309 104.14C476.323 104.14 474.656 104.786 473.307 106.079C471.959 107.353 471.284 109.039 471.284 111.137C471.284 113.216 471.94 114.893 473.251 116.167C474.563 117.422 476.146 118.049 478 118.049C479.873 118.049 481.438 117.647 482.693 116.841V111.446ZM497.75 109.001C496.195 109.001 495.024 109.507 494.237 110.519C493.45 111.53 493.057 112.888 493.057 114.593V121H489.91V106.051H493.057V109.057C493.563 108.121 494.247 107.353 495.108 106.753C495.989 106.154 496.916 105.845 497.89 105.826L497.918 109.001C497.862 109.001 497.806 109.001 497.75 109.001ZM513.19 121H510.323V119.005C509.087 120.485 507.429 121.225 505.35 121.225C503.795 121.225 502.502 120.785 501.472 119.904C500.46 119.024 499.955 117.853 499.955 116.392C499.955 114.912 500.498 113.806 501.584 113.076C502.671 112.345 504.141 111.98 505.996 111.98H510.071V111.418C510.071 109.432 508.965 108.439 506.755 108.439C505.368 108.439 503.926 108.945 502.427 109.957L501.022 107.99C502.839 106.547 504.9 105.826 507.204 105.826C508.965 105.826 510.398 106.276 511.504 107.175C512.628 108.055 513.19 109.451 513.19 111.362V121ZM510.042 115.436V114.172H506.502C504.235 114.172 503.102 114.884 503.102 116.307C503.102 117.038 503.383 117.6 503.945 117.993C504.507 118.368 505.284 118.555 506.277 118.555C507.289 118.555 508.169 118.274 508.918 117.712C509.668 117.15 510.042 116.392 510.042 115.436ZM523.669 121.225C521.776 121.225 520.128 120.513 518.723 119.089C517.318 117.665 516.615 115.792 516.615 113.469C516.615 111.146 517.337 109.292 518.779 107.905C520.222 106.519 521.936 105.826 523.921 105.826C525.926 105.826 527.537 106.669 528.755 108.355V100.15H531.902V121H528.755V118.752C527.593 120.401 525.898 121.225 523.669 121.225ZM519.763 113.61C519.763 115.033 520.222 116.195 521.14 117.094C522.057 117.993 523.135 118.443 524.371 118.443C525.607 118.443 526.657 117.993 527.518 117.094C528.38 116.176 528.811 115.005 528.811 113.582C528.811 112.158 528.38 110.968 527.518 110.013C526.657 109.057 525.598 108.58 524.343 108.58C523.088 108.58 522.011 109.057 521.111 110.013C520.212 110.968 519.763 112.167 519.763 113.61ZM550.36 114.902H538.642C538.717 115.989 539.214 116.869 540.132 117.544C541.05 118.199 542.099 118.527 543.279 118.527C545.152 118.527 546.576 117.937 547.55 116.757L549.348 118.724C547.737 120.391 545.639 121.225 543.054 121.225C540.956 121.225 539.167 120.532 537.687 119.145C536.226 117.74 535.495 115.867 535.495 113.525C535.495 111.165 536.244 109.292 537.743 107.905C539.242 106.519 541.003 105.826 543.026 105.826C545.068 105.826 546.801 106.444 548.224 107.681C549.648 108.898 550.36 110.584 550.36 112.739V114.902ZM538.642 112.429H547.213C547.213 111.174 546.819 110.21 546.033 109.535C545.246 108.861 544.272 108.524 543.11 108.524C541.968 108.524 540.937 108.88 540.019 109.591C539.101 110.285 538.642 111.231 538.642 112.429ZM560.734 108.271V101.358H562.925V108.271H560.734ZM620.062 108.271V101.358H622.254V108.271H620.062Z" fill="#161616"/>
<path d="M222.876 101.358H226.192V121H222.595L211.468 106.669V121H208.152V101.358H211.468L222.876 116.026V101.358ZM240.241 121H231.642V101.358H239.285C240.615 101.358 241.758 101.517 242.713 101.836C243.687 102.154 244.409 102.585 244.877 103.128C245.776 104.14 246.226 105.283 246.226 106.557C246.226 108.093 245.739 109.235 244.765 109.985C244.409 110.247 244.165 110.416 244.034 110.491C243.903 110.547 243.669 110.65 243.332 110.8C244.549 111.062 245.514 111.615 246.226 112.458C246.956 113.282 247.322 114.312 247.322 115.549C247.322 116.916 246.853 118.124 245.917 119.173C244.811 120.391 242.919 121 240.241 121ZM234.958 109.507H239.173C241.571 109.507 242.77 108.692 242.77 107.062C242.77 106.126 242.479 105.451 241.898 105.039C241.318 104.627 240.418 104.421 239.201 104.421H234.958V109.507ZM234.958 117.937H240.156C241.374 117.937 242.301 117.75 242.938 117.375C243.594 116.982 243.922 116.251 243.922 115.183C243.922 113.441 242.526 112.57 239.735 112.57H234.958V117.937ZM254.264 116.532L252.297 121H248.756L257.411 101.358H260.952L269.607 121H266.066L264.099 116.532H254.264ZM262.75 113.469L259.181 105.376L255.613 113.469H262.75ZM320.623 101.358H323.939V121H320.342L309.214 106.669V121H305.898V101.358H309.214L320.623 116.026V101.358ZM332.17 116.532L330.203 121H326.663L335.317 101.358H338.858L347.513 121H343.972L342.005 116.532H332.17ZM340.656 113.469L337.088 105.376L333.519 113.469H340.656ZM353.026 116.532L351.059 121H347.518L356.173 101.358H359.713L368.368 121H364.828L362.861 116.532H353.026ZM361.512 113.469L357.943 105.376L354.374 113.469H361.512ZM380.063 117.993C381.206 117.993 382.189 117.806 383.014 117.431C383.838 117.038 384.7 116.42 385.599 115.577L387.734 117.768C385.655 120.073 383.126 121.225 380.147 121.225C377.187 121.225 374.724 120.269 372.757 118.359C370.809 116.448 369.835 114.031 369.835 111.109C369.835 108.186 370.828 105.751 372.813 103.803C374.818 101.855 377.337 100.88 380.372 100.88C383.426 100.88 385.973 102.004 388.015 104.252L385.908 106.557C384.971 105.657 384.081 105.03 383.238 104.674C382.414 104.318 381.44 104.14 380.316 104.14C378.33 104.14 376.663 104.786 375.314 106.079C373.965 107.353 373.291 108.992 373.291 110.996C373.291 112.982 373.956 114.649 375.286 115.998C376.635 117.328 378.227 117.993 380.063 117.993ZM570.608 116.532L568.641 121H565.101L573.756 101.358H577.296L585.951 121H582.41L580.443 116.532H570.608ZM579.095 113.469L575.526 105.376L571.957 113.469H579.095ZM592.672 116.785V111.446H587.305V108.805H592.672V103.522H595.201V108.805H600.568V111.446H595.201V116.785H592.672ZM608.643 116.785V111.446H603.276V108.805H608.643V103.522H611.172V108.805H616.539V111.446H611.172V116.785H608.643Z" fill="#AF005F"/>
</svg>
